<svg width="25" height="24" viewBox="0 0 25 24" fill="none" xmlns="http://www.w3.org/2000/svg">
<path d="M19.6814 5.83269C17.2504 3.3891 13.3044 3.3891 10.8735 5.83269L4.8725 11.8649C3.0425 13.7044 3.0425 16.6823 4.8725 18.5218C6.70857 20.3675 9.69008 20.3675 11.5262 18.5218L17.2194 12.799C18.4545 11.5574 18.4545 9.54898 17.2194 8.30744C15.9782 7.05977 13.9612 7.05977 12.72 8.30744L7.96585 13.0769C7.57749 13.4673 7.581 14.0968 7.97368 14.4828C8.36637 14.8689 8.99952 14.8654 9.38787 14.475L14.142 9.70554C14.6004 9.24475 15.339 9.24475 15.7974 9.70554C16.2619 10.1724 16.2619 10.934 15.7974 11.4009L10.1041 17.1237C9.05086 18.1825 7.34779 18.1825 6.29452 17.1237C5.23516 16.0589 5.23516 14.3279 6.29452 13.263L12.2955 7.23079C13.9437 5.57408 16.6112 5.57408 18.2593 7.23079C19.9136 8.89362 19.9136 11.5941 18.2593 13.2569L13.2266 18.3068C12.8383 18.6972 12.8418 19.3266 13.2345 19.7127C13.6271 20.0988 14.2603 20.0953 14.6486 19.7049L19.6813 14.655C22.1062 12.2176 22.1062 8.27016 19.6814 5.83269Z" fill="#0858CE"/>
</svg>
