<svg width="16" height="16" viewBox="0 0 16 16" fill="none" xmlns="http://www.w3.org/2000/svg">
<path d="M4.07742 7.41074C3.92114 7.56702 3.83334 7.77899 3.83334 8C3.83334 8.22101 3.92114 8.43298 4.07742 8.58926L6.74409 11.2559C7.06953 11.5814 7.59716 11.5814 7.9226 11.2559C8.24804 10.9305 8.24804 10.4028 7.9226 10.0774L5.84519 8L7.9226 5.92259C8.24804 5.59715 8.24804 5.06951 7.9226 4.74408C7.59716 4.41864 7.06952 4.41864 6.74409 4.74408L4.07742 7.41074Z" fill="#0858CE"/>
<path d="M8.07742 7.41074C7.92114 7.56702 7.83334 7.77899 7.83334 8C7.83334 8.22101 7.92114 8.43298 8.07742 8.58926L10.7441 11.2559C11.0695 11.5814 11.5972 11.5814 11.9226 11.2559C12.248 10.9305 12.248 10.4028 11.9226 10.0774L9.84519 8L11.9226 5.92259C12.248 5.59715 12.248 5.06951 11.9226 4.74408C11.5972 4.41864 11.0695 4.41864 10.7441 4.74408L8.07742 7.41074Z" fill="#0858CE"/>
</svg>
