<svg width="60" height="60" viewBox="0 0 60 60" fill="none" xmlns="http://www.w3.org/2000/svg">
<path d="M37.6537 11.5224C35.2272 10.5173 32.6264 10 30 10L30 0C33.9397 0 37.8407 0.775973 41.4805 2.28361C45.1203 3.79126 48.4275 6.00104 51.2132 8.7868C53.999 11.5726 56.2087 14.8797 57.7164 18.5195C59.224 22.1593 60 26.0603 60 30H50C50 27.3736 49.4827 24.7728 48.4776 22.3463C47.4725 19.9198 45.9993 17.715 44.1421 15.8579C42.285 14.0007 40.0802 12.5275 37.6537 11.5224Z" fill="#146FF5"/>
<path d="M10 30C10 32.6264 10.5173 35.2272 11.5224 37.6537C12.5275 40.0802 14.0007 42.285 15.8579 44.1421C17.715 45.9993 19.9198 47.4725 22.3463 48.4776C24.7729 49.4827 27.3736 50 30 50L30 60C26.0604 60 22.1593 59.224 18.5195 57.7164C14.8797 56.2087 11.5726 53.999 8.78681 51.2132C6.00105 48.4274 3.79126 45.1203 2.28362 41.4805C0.775983 37.8407 9.53674e-06 33.9397 9.53674e-06 30H10Z" fill="#146FF5"/>
<path d="M30 41.6949C36.4589 41.6949 41.6949 36.4589 41.6949 30C41.6949 23.5411 36.4589 18.3051 30 18.3051C23.5411 18.3051 18.3051 23.5411 18.3051 30C18.3051 36.4589 23.5411 41.6949 30 41.6949Z" fill="#146FF5"/>
<path fill-rule="evenodd" clip-rule="evenodd" d="M50 30C50 32.6264 49.4827 35.2272 48.4776 37.6537C47.4725 40.0802 45.9993 42.285 44.1421 44.1421C42.285 45.9993 40.0802 47.4725 37.6537 48.4776C35.2272 49.4827 32.6264 50 30 50L30 60C33.9397 60 37.8407 59.224 41.4805 57.7164C45.1203 56.2087 48.4274 53.999 51.2132 51.2132C53.999 48.4274 56.2087 45.1203 57.7164 41.4805C59.224 37.8407 60 33.9397 60 30L50 30ZM22.3463 11.5224C24.7728 10.5173 27.3736 10 30 10L30 -1.31134e-06C26.0603 -1.48355e-06 22.1593 0.77597 18.5195 2.28361C14.8797 3.79125 11.5726 6.00103 8.7868 8.78679C6.00104 11.5725 3.79126 14.8797 2.28362 18.5195C0.775977 22.1593 2.67556e-06 26.0603 2.50336e-06 30L10 30C10 27.3736 10.5173 24.7728 11.5224 22.3463C12.5275 19.9198 14.0007 17.715 15.8579 15.8579C17.715 14.0007 19.9198 12.5275 22.3463 11.5224Z" fill="#84B4FA"/>
</svg>
