<svg width="16" height="16" viewBox="0 0 16 16" fill="none" xmlns="http://www.w3.org/2000/svg">
<path d="M11.9226 8.58926C12.0789 8.43298 12.1667 8.22101 12.1667 8C12.1667 7.77899 12.0789 7.56702 11.9226 7.41074L9.25592 4.74408C8.93048 4.41864 8.40285 4.41864 8.07741 4.74408C7.75197 5.06951 7.75197 5.59715 8.07741 5.92259L10.1548 8L8.07741 10.0774C7.75197 10.4028 7.75197 10.9305 8.07741 11.2559C8.40285 11.5814 8.93048 11.5814 9.25592 11.2559L11.9226 8.58926Z" fill="#0858CE"/>
<path d="M7.92259 8.58926C8.07887 8.43297 8.16666 8.22101 8.16666 8C8.16666 7.77899 8.07887 7.56702 7.92259 7.41074L5.25592 4.74408C4.93048 4.41864 4.40285 4.41864 4.07741 4.74408C3.75197 5.06951 3.75197 5.59715 4.07741 5.92259L6.15482 8L4.07741 10.0774C3.75197 10.4028 3.75197 10.9305 4.07741 11.2559C4.40285 11.5814 4.93048 11.5814 5.25592 11.2559L7.92259 8.58926Z" fill="#0858CE"/>
</svg>
