<svg width="24" height="24" viewBox="0 0 24 24" fill="none" xmlns="http://www.w3.org/2000/svg">
<path fill-rule="evenodd" clip-rule="evenodd" d="M15.9987 10.0008C15.9987 12.2092 14.2084 13.9994 12 13.9994C9.79159 13.9994 8.00133 12.2092 8.00133 10.0008C8.00133 7.79236 9.79159 6.00209 12 6.00209C14.2084 6.00209 15.9987 7.79236 15.9987 10.0008ZM13.9993 10.0008C13.9993 11.105 13.1042 12.0001 12 12.0001C10.8958 12.0001 10.0007 11.105 10.0007 10.0008C10.0007 8.89656 10.8958 8.00143 12 8.00143C13.1042 8.00143 13.9993 8.89656 13.9993 10.0008Z" fill="#282B33"/>
<path fill-rule="evenodd" clip-rule="evenodd" d="M12 2.00342C5.42836 2.00342 1.65817 9.47865 5.61365 14.7275L10.5458 21.2724C11.2736 22.2382 12.7264 22.2383 13.4542 21.2724L18.3864 14.7275C22.3418 9.47865 18.5716 2.00342 12 2.00342ZM7.21036 13.5242C4.25869 9.60742 7.05973 4.00275 12 4.00275C16.9403 4.00275 19.7413 9.60742 16.7896 13.5242L12 19.88L7.21036 13.5242Z" fill="#282B33"/>
</svg>
